<svg width="329" height="329" viewBox="0 0 329 329" fill="none" xmlns="http://www.w3.org/2000/svg">
<path fill-rule="evenodd" clip-rule="evenodd" d="M27.4165 202.924V291.302C27.4165 296.977 32.0225 301.583 37.6977 301.583H59.823C62.2578 301.584 64.6138 300.72 66.4714 299.146C68.3291 297.572 69.5678 295.39 69.9671 292.988L75.3956 260.458H253.604L259.019 292.988C259.418 295.39 260.657 297.572 262.514 299.146C264.372 300.72 266.728 301.584 269.163 301.583H291.302C294.029 301.583 296.644 300.5 298.572 298.572C300.5 296.644 301.583 294.029 301.583 291.302V202.924C301.584 186.809 296.814 171.054 287.875 157.646L277.182 141.607C276.229 140.179 275.412 138.664 274.742 137.083H288.368C290.279 137.083 292.151 136.551 293.776 135.546C295.401 134.541 296.713 133.103 297.567 131.394L300.994 124.54C301.776 122.974 302.145 121.234 302.066 119.485C301.987 117.735 301.463 116.036 300.543 114.546C299.623 113.056 298.338 111.826 296.809 110.972C295.281 110.118 293.56 109.669 291.809 109.667H268.683L264.434 88.4735C263.141 82.019 260.016 76.0734 255.434 71.3476C250.851 66.6218 245.005 63.3156 238.593 61.8245C218.552 57.1637 193.849 54.8333 164.5 54.8333C135.137 54.8333 110.448 57.1637 90.4063 61.8245C83.9921 63.3133 78.1427 66.6184 73.5577 71.3444C68.9727 76.0704 65.8462 82.0172 64.5523 88.4735L60.3028 109.667H37.2042C35.4534 109.669 33.7323 110.118 32.2038 110.972C30.6754 111.826 29.3903 113.056 28.4705 114.546C27.5506 116.036 27.0264 117.735 26.9475 119.485C26.8686 121.234 27.2376 122.974 28.0196 124.54L31.4467 131.394C32.299 133.101 33.6095 134.538 35.2315 135.542C36.8536 136.547 38.7233 137.081 40.6313 137.083H54.2711C53.6013 138.664 52.7843 140.179 51.831 141.607L41.1248 157.646C32.187 171.052 27.4165 186.803 27.4165 202.924ZM246.215 137.138C247.16 141.879 248.727 146.475 250.876 150.805H78.1236C80.2758 146.487 81.8385 141.895 82.7844 137.138L91.4481 93.8609C91.7038 92.567 92.3274 91.3743 93.2441 90.426C94.1608 89.4777 95.3316 88.8141 96.6161 88.5146C114.41 84.4021 137.083 82.2499 164.5 82.2499C191.916 82.2499 214.59 84.3884 232.383 88.5283C233.669 88.8244 234.841 89.485 235.76 90.4309C236.679 91.3768 237.306 92.5677 237.565 93.8609L246.215 137.138ZM75.3956 219.333C80.8491 219.333 86.0793 217.167 89.9355 213.311C93.7917 209.454 95.9581 204.224 95.9581 198.771C95.9581 193.317 93.7917 188.087 89.9355 184.231C86.0793 180.375 80.8491 178.208 75.3956 178.208C69.9421 178.208 64.712 180.375 60.8557 184.231C56.9995 188.087 54.8331 193.317 54.8331 198.771C54.8331 204.224 56.9995 209.454 60.8557 213.311C64.712 217.167 69.9421 219.333 75.3956 219.333ZM274.166 198.771C274.166 204.224 272 209.454 268.144 213.311C264.288 217.167 259.057 219.333 253.604 219.333C248.15 219.333 242.92 217.167 239.064 213.311C235.208 209.454 233.041 204.224 233.041 198.771C233.041 193.317 235.208 188.087 239.064 184.231C242.92 180.375 248.15 178.208 253.604 178.208C259.057 178.208 264.288 180.375 268.144 184.231C272 188.087 274.166 193.317 274.166 198.771Z" fill="#FFDE00"/>
</svg>
