<svg width="244" height="244" viewBox="0 0 244 244" fill="none" xmlns="http://www.w3.org/2000/svg">
<g clip-path="url(#clip0_240_18)">
<path d="M233.668 0H221.595C218.727 0 216.403 2.32423 216.403 5.19149V11.6523C216.403 14.5193 214.079 16.8438 211.212 16.8438H199.954C197.087 16.8438 194.762 14.5193 194.762 11.6523V5.19149C194.762 2.32423 192.438 0 189.571 0H54.0227C51.1555 0 48.8312 2.32423 48.8312 5.19149V11.6523C48.8312 14.5193 46.507 16.8438 43.6397 16.8438H32.382C29.5147 16.8438 27.1905 14.5193 27.1905 11.6523V5.19149C27.1905 2.32423 24.8663 0 21.999 0H10.3311C7.46388 0 5.13965 2.32423 5.13965 5.19149V238.809C5.13965 241.676 7.46388 244 10.3311 244H21.999C24.8663 244 27.1905 241.676 27.1905 238.809V234.062C27.1905 231.195 29.5147 228.871 32.382 228.871H43.6397C46.507 228.871 48.8312 231.195 48.8312 234.062V238.809C48.8312 241.676 51.1555 244 54.0227 244H189.571C192.438 244 194.762 241.676 194.762 238.809V234.062C194.762 231.195 197.087 228.871 199.954 228.871H211.212C214.079 228.871 216.403 231.195 216.403 234.062V238.809C216.403 241.676 218.727 244 221.595 244H233.668C236.536 244 238.86 241.676 238.86 238.809V5.19149C238.86 2.32449 236.536 0 233.668 0ZM48.8312 198.67C48.8312 201.538 46.507 203.862 43.6397 203.862H32.382C29.5147 203.862 27.1905 201.538 27.1905 198.67V187.413C27.1905 184.546 29.5147 182.221 32.382 182.221H43.6397C46.507 182.221 48.8312 184.546 48.8312 187.413V198.67ZM48.8312 152.021C48.8312 154.888 46.507 157.212 43.6397 157.212H32.382C29.5147 157.212 27.1905 154.888 27.1905 152.021V140.763C27.1905 137.896 29.5147 135.571 32.382 135.571H43.6397C46.507 135.571 48.8312 137.896 48.8312 140.763V152.021ZM48.8312 105.371C48.8312 108.238 46.507 110.562 43.6397 110.562H32.382C29.5147 110.562 27.1905 108.238 27.1905 105.371V94.1129C27.1905 91.2456 29.5147 88.9214 32.382 88.9214H43.6397C46.507 88.9214 48.8312 91.2456 48.8312 94.1129V105.371ZM48.8312 58.7209C48.8312 61.5882 46.507 63.9124 43.6397 63.9124H32.382C29.5147 63.9124 27.1905 61.5882 27.1905 58.7209V47.4632C27.1905 44.5962 29.5147 42.2717 32.382 42.2717H43.6397C46.507 42.2717 48.8312 44.5962 48.8312 47.4632V58.7209ZM172.315 216.554C172.315 219.422 169.99 221.746 167.123 221.746H76.8764C74.0092 221.746 71.6849 219.422 71.6849 216.554V174.835C71.6849 171.968 74.0092 169.644 76.8764 169.644H167.123C169.99 169.644 172.315 171.968 172.315 174.835V216.554ZM172.315 142.86C172.315 145.727 169.99 148.051 167.123 148.051H76.8764C74.0092 148.051 71.6849 145.727 71.6849 142.86V101.14C71.6849 98.2733 74.0092 95.9489 76.8764 95.9489H167.123C169.99 95.9489 172.315 98.2733 172.315 101.14V142.86ZM172.315 69.1647C172.315 72.0319 169.99 74.3561 167.123 74.3561H76.8764C74.0092 74.3561 71.6849 72.0319 71.6849 69.1647V27.4453C71.6849 24.5783 74.0092 22.2538 76.8764 22.2538H167.123C169.99 22.2538 172.315 24.5783 172.315 27.4453V69.1647ZM216.403 198.67C216.403 201.538 214.079 203.862 211.212 203.862H199.954C197.087 203.862 194.763 201.538 194.763 198.67V187.413C194.763 184.546 197.087 182.221 199.954 182.221H211.212C214.079 182.221 216.403 184.546 216.403 187.413V198.67ZM216.403 152.021C216.403 154.888 214.079 157.212 211.212 157.212H199.954C197.087 157.212 194.763 154.888 194.763 152.021V140.763C194.763 137.896 197.087 135.571 199.954 135.571H211.212C214.079 135.571 216.403 137.896 216.403 140.763V152.021ZM216.403 105.371C216.403 108.238 214.079 110.562 211.212 110.562H199.954C197.087 110.562 194.763 108.238 194.763 105.371V94.1129C194.763 91.2456 197.087 88.9214 199.954 88.9214H211.212C214.079 88.9214 216.403 91.2456 216.403 94.1129V105.371ZM216.403 58.7209C216.403 61.5882 214.079 63.9124 211.212 63.9124H199.954C197.087 63.9124 194.763 61.5882 194.763 58.7209V47.4632C194.763 44.5962 197.087 42.2717 199.954 42.2717H211.212C214.079 42.2717 216.403 44.5962 216.403 47.4632V58.7209Z" fill="#FFDE00"/>
</g>
<defs>
<clipPath id="clip0_240_18">
<rect width="244" height="244" fill="white"/>
</clipPath>
</defs>
</svg>
