<svg width="326" height="327" viewBox="0 0 326 327" fill="none" xmlns="http://www.w3.org/2000/svg">
<g clip-path="url(#clip0_216_4)">
<path d="M57.3489 51.884L148.588 143.403L110.174 181.948L57.3353 128.947C47.1494 118.727 41.4272 104.867 41.4272 90.4155C41.4272 75.9641 47.163 62.1043 57.3489 51.884ZM193.807 165.489L182.207 177.125L278.255 273.467L259.048 292.733L163 196.404L66.9523 292.733L47.7455 273.467L174.6 146.224C166.613 126.372 174.872 97.7866 196.605 75.9594C223.133 49.3634 259.686 42.8915 278.255 61.5169C296.823 80.1423 290.371 116.807 263.856 143.403C242.096 165.23 213.598 173.514 193.807 165.489Z" fill="#FFDE00"/>
</g>
<defs>
<clipPath id="clip0_216_4">
<rect width="326" height="327" fill="white"/>
</clipPath>
</defs>
</svg>
