<svg width="291" height="287" viewBox="0 0 291 287" fill="none" xmlns="http://www.w3.org/2000/svg">
<path d="M113.413 83.4856C102.196 77.7142 91.2469 75.7904 84.3356 80.6291C79.4523 84.0596 77.2925 90.4498 77.1879 98.1809C65.814 87.3963 56.6169 74.5823 50.084 60.418V8.96875H29.2548V60.4359H29.3594C25.7719 72.6155 22.7073 86.8982 22.7346 100.32C22.7709 127.406 44.2777 141.038 61.774 141.038C62.0241 141.038 62.2514 140.984 62.5015 140.98C65.4243 140.949 68.3246 140.472 71.0997 139.567L71.2588 139.504C74.1279 138.522 76.7014 137.096 78.752 135.114C78.752 135.114 75.7147 133.002 71.1951 128.711C74.0278 128.912 77.1288 128.845 80.2252 128.513C82.5942 139.554 87.7185 151.37 91.797 156.823L181.343 278.031H203.209L122.184 161.868C128.445 161.729 134.492 159.294 140.103 155.357C153.948 145.661 159.923 130.778 144.127 109.585C140.46 104.744 136.309 100.279 131.737 96.2571C137.298 99.737 144.118 105.508 151.538 115.011C179.265 150.451 268.266 271.672 268.266 271.672V255.775C268.266 255.775 186.84 145.218 159.036 109.665C139.871 85.1583 121.024 79.6829 113.413 83.4856ZM44.0503 118.724C48.5517 129.935 67.1121 135.262 67.1121 135.262C55.3266 141.796 26.2175 126.096 26.1811 100.315C26.1629 86.97 29.3139 72.5841 32.9559 60.4314H38.4076C49.7021 98.7684 77.1788 108.674 77.1788 108.674C65.557 108.674 51.9209 105.235 51.9209 105.235C63.4655 118.271 88.0459 120.863 88.0459 120.863C66.5255 125.491 44.0503 118.724 44.0503 118.724ZM139.007 111.701C153.171 130.684 147.142 141.383 142.522 144.621C137.911 147.854 138.293 141.119 124.13 122.127C109.957 103.15 89.1735 86.2704 93.7931 83.0372C98.4082 79.8129 124.844 92.7189 139.007 111.701Z" fill="#FFDE00"/>
<path d="M256.198 104.1C257.208 105.701 268.266 124.845 268.266 124.845V106.015C268.266 106.015 265.237 101.1 264.196 99.4769C252.206 80.5753 236.392 70.176 226.962 69.6693C224.82 69.5706 223.197 69.9832 221.997 70.5661C212.094 64.5885 202.218 62.1355 195.452 66.0818C187.468 70.7365 185.549 83.2255 187.841 97.0688C184.926 109.002 191.101 130.885 196.207 139.105L268.266 251.349V220.304L225.061 146.276C230.895 146.531 236.719 144.693 242.262 141.464C256.221 133.32 263.15 119.648 249.874 98.2616C247.106 93.8599 243.934 89.7184 240.398 85.8892C245.308 89.8669 250.869 95.71 256.198 104.1ZM245.449 131.45C240.807 134.155 241.73 127.778 229.835 108.63C217.936 89.4767 199.59 71.8128 204.232 69.1042C208.883 66.3912 232.941 80.7277 244.827 99.876C256.73 119.029 250.124 128.733 245.449 131.45Z" fill="#FFDE00"/>
<path d="M66.5801 188.676L66.6437 188.756C55.2856 183.841 44.3959 182.653 38.0757 187.855C30.978 193.711 31.1917 206.353 35.775 219.654C34.9202 231.887 44.6732 252.484 51.0934 259.789L66.0799 278.031H90.5557L78.3883 262.475C85.0858 262.381 91.3378 259.461 96.9214 254.856C109.33 244.618 113.868 230.026 97.1805 211.03C93.6385 206.994 89.4736 203.182 85.0222 199.756C90.5012 202.846 97.2578 207.918 104.437 215.806C118.201 230.936 159.068 278.031 159.068 278.031H170.963C170.963 278.031 125.344 225.156 111.499 209.949C94.9707 191.788 75.2646 182.442 66.5801 188.676ZM92.4836 213.416C107.429 230.439 102.528 241.053 98.3991 244.479C94.2614 247.878 94.1023 241.443 79.1476 224.42C64.202 207.398 43.1364 192.873 47.2558 189.451C51.3844 186.039 77.5289 196.402 92.4836 213.416Z" fill="#FFDE00"/>
</svg>
