<svg width="302" height="302" viewBox="0 0 302 302" fill="none" xmlns="http://www.w3.org/2000/svg">
<path d="M102.635 82.6335C107.637 94.776 121.535 100.565 133.679 95.5629C141.172 92.4756 146.234 85.9979 147.846 78.6379L167.163 84.1317L169.816 76.3363L150.014 63.1061L151.933 46.9739C152.293 43.9456 150.401 41.1049 147.468 40.2709L122.252 33.0996C119.32 32.2655 116.215 33.6859 114.928 36.4499L108.241 50.8126L85.0793 52.2376L82.4261 60.0318L102.226 65.6637C100.342 70.9911 100.314 76.9969 102.635 82.6335ZM150.428 155.086H121.791L106.937 101.441C104.788 91.9672 96.3287 84.7486 86.4029 84.7486H33.987C30.3712 84.7486 26.7567 86.6692 24.7276 89.8319L3.94388 126.164C0.782316 131.235 2.8102 137.606 7.78612 140.72C12.3197 143.548 19.038 141.818 22.3305 137.104L40.073 106.297H67.5632L33.7251 164.649C29.7779 171.457 29.4039 179.763 32.7247 186.898L49.665 223.298L34.7266 280.462C32.6386 288.719 37.5544 296.999 45.5963 299.159C53.8529 301.247 62.1213 296.332 64.2932 288.29L80.1021 225.732C80.9492 222.522 80.8418 218.716 79.1478 215.495L77.7038 212.44L97.9992 224.133L77.9775 278.685C75.0661 286.596 78.8128 295.627 86.6754 298.622C94.6571 301.665 103.452 297.656 106.399 289.662L130.87 222.785C133.901 214.517 130.524 205.294 122.888 200.927L79.6362 176.24L96.5553 146.686L102.73 168.501C104.126 173.278 108.508 176.563 113.485 176.563H150.426C156.401 176.778 160.88 172.257 161.104 166.398C161.309 161.05 156.153 155.61 150.428 155.086ZM224.383 71.115C244.229 63.5803 254.98 42.7506 250.496 22.6464C250.438 23.6798 249.975 24.5303 249.548 25.4788C246.866 31.4433 239.694 34.166 233.729 31.4834C232.781 31.0564 231.893 30.4948 231.14 29.9935C224.6 24.6082 215.342 22.7266 207.09 25.8598C194.71 30.5597 188.198 44.4965 193.01 57.1711C197.822 69.8445 211.709 75.9258 224.383 71.115ZM299.572 241.019C299.572 241.019 294.799 164.631 264.374 137.188C264.173 137.008 263.977 136.84 263.777 136.666V81.9728L289.039 70.9463C295.484 68.1316 298.938 60.8954 297.073 54.1133L284.89 9.81372C283.406 4.41311 277.824 1.23975 272.422 2.7238C267.021 4.20903 263.847 9.79131 265.333 15.1919L276.128 54.4484L253.724 64.228L208.689 84.2261C199.898 88.1308 193.874 96.5042 192.97 106.08L190.732 129.747L164.418 114.667C159.558 111.881 153.361 113.563 150.576 118.423C147.79 123.283 149.472 129.48 154.332 132.265L189.738 152.556C191.828 153.754 194.145 154.356 196.465 154.356C198.595 154.356 200.726 153.85 202.688 152.834C206.791 150.71 209.501 146.695 209.939 142.092L212.058 119.67L222.613 144.349C222.613 144.349 224.895 160.532 195.767 181.337C162.358 205.199 173.694 254.716 173.694 254.716C173.694 254.716 183.65 251.246 198.153 249.262V286.334C198.163 293.521 204.251 299.364 211.279 299.459C218.467 299.449 224.3 293.365 224.404 286.334V248.118C229.293 248.396 234.304 248.982 239.334 249.985L239.028 250.124L248.947 289.46C250.714 296.427 258.046 300.604 264.882 298.978C271.85 297.21 276.019 289.884 274.4 283.042L267.103 254.103C296.057 255.039 299.572 241.019 299.572 241.019Z" fill="#FFDE00"/>
</svg>
