<svg width="365" height="365" viewBox="0 0 365 365" fill="none" xmlns="http://www.w3.org/2000/svg">
<g clip-path="url(#clip0_216_11)">
<path d="M266.146 205.313H205.312V266.146H159.687V205.313H98.8541V159.688H159.687V98.8543H205.312V159.688H266.146V205.313ZM182.5 30.4167C152.421 30.4167 123.017 39.3363 98.0069 56.0474C72.997 72.7585 53.5041 96.5107 41.9932 124.3C30.4824 152.09 27.4706 182.669 33.3388 212.17C39.207 241.671 53.6915 268.77 74.9607 290.039C96.23 311.309 123.329 325.793 152.83 331.661C182.331 337.529 212.91 334.518 240.7 323.007C268.489 311.496 292.241 292.003 308.953 266.993C325.664 241.983 334.583 212.579 334.583 182.5C334.583 162.528 330.649 142.752 323.007 124.3C315.364 105.849 304.161 89.0832 290.039 74.9609C275.917 60.8387 259.151 49.6363 240.7 41.9934C222.248 34.3505 202.472 30.4167 182.5 30.4167Z" fill="#FFDE00"/>
</g>
<defs>
<clipPath id="clip0_216_11">
<rect width="365" height="365" fill="white"/>
</clipPath>
</defs>
</svg>
