<svg width="271" height="271" viewBox="0 0 271 271" fill="none" xmlns="http://www.w3.org/2000/svg">
<g clip-path="url(#clip0_240_21)">
<path d="M202.609 4.07248C197.971 7.27948 194.251 10.5548 191.332 13.893C188.787 16.7999 186.856 19.7565 185.443 22.7635C180.986 32.2527 181.767 42.1986 185.225 52.4754C159.651 54.7821 150.443 94.4088 124.875 93.1581C117.299 92.7892 93.3628 53.1566 85.7865 52.4754C89.2433 42.1986 90.0246 32.2527 85.5679 22.7635C84.1552 19.7629 82.2233 16.8063 79.6795 13.893C76.7604 10.5548 73.0406 7.27948 68.4023 4.07248C83.0051 2.30358 97.6078 1.10314 112.217 0.490744C142.347 -0.778505 172.478 0.415584 202.609 4.07248Z" fill="#FFDE00"/>
<path d="M184.935 52.5134C211.215 68.9914 228.693 98.2223 228.693 131.535C228.693 167.873 207.895 213.639 177.552 237.406C171.595 242.069 171.707 251.046 177.652 255.722C183.266 260.129 188.548 265.286 193.436 271H77.564C82.4526 265.286 87.7349 260.129 93.3481 255.722C99.2995 251.046 99.4117 242.069 93.4545 237.406C63.1047 213.639 42.3071 167.873 42.3071 131.535C42.3071 98.2223 59.7855 68.9914 86.0719 52.5134" fill="#FFDE00"/>
<path d="M115.692 237.406C101.395 213.639 91.5977 167.873 91.5977 131.535C91.5977 98.2223 99.832 68.9914 112.215 52.5134H86.0714C59.785 68.9914 42.3066 98.2223 42.3066 131.535C42.3066 167.873 63.1042 213.639 93.454 237.406C99.4112 242.069 99.299 251.046 93.3476 255.722C87.7339 260.129 82.4515 265.286 77.5635 271H108.206C110.509 265.286 112.998 260.129 115.643 255.722C118.446 251.045 118.499 242.069 115.692 237.406Z" fill="#DABE06"/>
<path d="M112.214 52.5135L108.514 54.0574C100.937 53.6885 93.3604 53.1571 85.7841 52.4759C91.5915 35.2103 89.8475 18.8943 68.3994 4.07295C83.0021 2.30405 97.6048 1.10361 112.214 0.491211C128.455 28.3337 112.214 52.5135 112.214 52.5135Z" fill="#DABE06"/>
<path d="M191.332 13.8929C188.788 16.7998 186.856 19.7565 185.443 22.7634C152.293 19.7379 118.712 19.7379 85.5676 22.7634C84.1549 19.7628 82.223 16.8062 79.6792 13.8929L82.5983 13.6177C117.699 10.2794 153.306 10.2794 188.413 13.6177L191.332 13.8929Z" fill="#DABE06"/>
<path d="M228.693 136.224H42.3071C39.7173 136.224 37.6187 134.124 37.6187 131.535C37.6187 128.946 39.7173 126.847 42.3071 126.847H228.694C231.283 126.847 233.382 128.946 233.382 131.535C233.382 134.124 231.283 136.224 228.693 136.224Z" fill="#DABE06"/>
<path d="M223.367 170.668H47.6328C45.043 170.668 42.9443 168.568 42.9443 165.979C42.9443 163.39 45.043 161.291 47.6328 161.291H223.367C225.957 161.291 228.056 163.39 228.056 165.979C228.055 168.568 225.956 170.668 223.367 170.668Z" fill="#DABE06"/>
</g>
<defs>
<clipPath id="clip0_240_21">
<rect width="271" height="271" fill="white"/>
</clipPath>
</defs>
</svg>
