<svg width="261" height="261" viewBox="0 0 261 261" fill="none" xmlns="http://www.w3.org/2000/svg">
<g clip-path="url(#clip0_251_5)">
<path d="M260.184 84.0094C258.553 81.5625 256.106 79.9313 252.844 79.9313H249.581L260.184 60.3563C261.816 57.9094 261.816 54.6469 260.184 52.2C258.553 49.7531 256.106 48.1219 252.844 48.1219H230.006C194.119 48.1219 161.494 66.8812 141.919 99.5062C141.919 100.322 141.103 100.322 140.288 100.322C139.472 100.322 139.472 100.322 138.656 99.5062L118.266 48.9375C116.634 45.675 115.003 42.4125 112.556 39.9656C127.238 37.5188 138.656 23.6531 138.656 8.15625C138.656 3.2625 135.394 0 130.5 0H106.031C90.5344 0 77.4844 10.6031 74.2219 25.2844C60.3563 27.7312 48.9375 37.5187 44.0438 50.5687L4.07812 74.2219C1.63125 75.8531 0 78.3 0 81.5625C0 84.825 1.63125 87.2719 4.07812 88.9031L24.4688 101.137C24.4688 107.662 22.0219 115.003 17.9438 120.713C13.05 127.238 12.2344 136.209 15.4969 143.55C19.575 150.075 26.9156 154.969 35.0719 154.969C38.3344 154.969 41.5969 154.153 44.0438 153.337C51.3844 181.069 69.3281 203.906 94.6125 217.772L95.4281 218.587C109.294 225.928 123.975 229.191 138.656 229.191V245.503H122.344C117.45 245.503 114.188 248.766 114.188 253.659C114.188 258.553 117.45 261.816 122.344 261.816H163.125C168.019 261.816 171.281 258.553 171.281 253.659C171.281 248.766 168.019 245.503 163.125 245.503H154.969V227.559C164.756 225.928 174.544 222.666 183.516 217.772L184.331 216.956C208.8 203.906 226.744 181.069 234.9 153.337C241.425 129.684 249.581 110.109 259.369 92.9812L260.184 92.1656C261 89.7188 261 86.4563 260.184 84.0094ZM40.7812 91.35L23.6531 81.5625L40.7812 71.775V91.35ZM81.5625 73.4062C76.6687 73.4062 73.4062 69.3281 73.4062 65.25C73.4062 61.1719 77.4844 57.0938 81.5625 57.0938C85.6406 57.0938 89.7188 61.1719 89.7188 65.25C89.7188 69.3281 85.6406 73.4062 81.5625 73.4062ZM195.75 154.969H191.672C183.516 174.544 164.756 187.594 142.734 187.594C113.372 187.594 89.7188 163.941 89.7188 134.578V130.5C89.7188 125.606 92.9812 122.344 97.875 122.344C102.769 122.344 106.031 125.606 106.031 130.5V134.578C106.031 154.969 122.344 171.281 142.734 171.281C154.969 171.281 166.388 164.756 172.913 154.969H154.969C150.075 154.969 146.812 151.706 146.812 146.812C146.812 141.919 150.075 138.656 154.969 138.656H195.75C200.644 138.656 203.906 141.919 203.906 146.812C203.906 151.706 200.644 154.969 195.75 154.969Z" fill="#FFDE00"/>
</g>
<defs>
<clipPath id="clip0_251_5">
<rect width="261" height="261" fill="white"/>
</clipPath>
</defs>
</svg>
