<svg width="279" height="279" viewBox="0 0 279 279" fill="none" xmlns="http://www.w3.org/2000/svg">
<g clip-path="url(#clip0_240_59)">
<path d="M260.121 0H84.8302C79.7078 0 75.5537 4.15407 75.5537 9.27651V147.651L94.1067 129.098V18.553H250.844V236.64H239.167V255.193H260.121C265.243 255.193 269.397 251.039 269.397 245.916V9.27651C269.397 4.15407 265.243 0 260.121 0Z" fill="#FFDE00"/>
<path d="M78.3755 252.547C80.0474 254.174 82.3161 255.193 84.8303 255.193H190.71V236.64H94.283L78.3755 252.547Z" fill="#FFDE00"/>
<path d="M243.629 204.669C243.629 199.052 241.952 193.858 239.167 189.432C237.323 186.506 234.959 183.982 232.214 181.894C227.399 178.235 221.456 175.978 214.938 175.978C208.42 175.978 202.477 178.234 197.662 181.894C194.917 183.982 192.552 186.506 190.709 189.432C187.923 193.858 186.247 199.052 186.247 204.669C186.247 210.282 187.923 215.481 190.709 219.903C193.06 223.634 196.23 226.742 199.985 229.052V276.224C199.985 277.365 200.688 278.393 201.747 278.81C202.074 278.936 202.418 279.001 202.757 279.001C203.518 279.001 204.261 278.688 204.8 278.108L212.899 269.348C213.425 268.781 214.163 268.46 214.938 268.46C215.712 268.46 216.451 268.781 216.976 269.348L225.075 278.108C225.614 278.688 226.357 279.001 227.118 279.001C227.458 279.001 227.802 278.936 228.129 278.81C229.188 278.394 229.89 277.365 229.89 276.224V229.052C233.645 226.742 236.816 223.634 239.167 219.903C241.953 215.481 243.629 210.282 243.629 204.669ZM214.938 192.136C221.86 192.136 227.472 197.749 227.472 204.669C227.472 211.591 221.859 217.203 214.938 217.203C208.017 217.203 202.405 211.59 202.405 204.669C202.405 197.749 208.017 192.136 214.938 192.136Z" fill="#FFDE00"/>
<path d="M191.335 143.031C204.163 142.346 215.971 135.829 223.386 125.333L231.187 114.286C237.917 104.765 236.803 91.7869 228.56 83.5476C227.562 82.5466 226.249 82.0484 224.945 82.0484C223.631 82.0484 222.327 82.5466 221.326 83.5476L201.002 103.864C199.217 105.648 196.875 106.545 194.538 106.545C192.196 106.545 189.859 105.648 188.074 103.864L173.198 88.9886C171.477 87.2759 170.517 84.9477 170.517 82.5244C170.517 80.0965 171.477 77.7777 173.194 76.0556L193.513 55.7362C195.515 53.7388 195.515 50.4994 193.513 48.5026C188.879 43.8643 182.747 41.4866 176.576 41.4866C171.771 41.4866 166.943 42.9263 162.775 45.8705L151.727 53.6752C141.233 61.0902 134.718 72.8944 134.03 85.7271L132.716 110.16L16.6829 226.208C7.24307 235.647 7.24307 250.944 16.6829 260.383C21.4028 265.108 27.5905 267.468 33.7729 267.468C39.9553 267.468 46.1388 265.108 50.8588 260.388L166.907 144.34L191.335 143.031Z" fill="#FFDE00"/>
</g>
<defs>
<clipPath id="clip0_240_59">
<rect width="279" height="279" fill="white"/>
</clipPath>
</defs>
</svg>
