<svg width="272" height="272" viewBox="0 0 272 272" fill="none" xmlns="http://www.w3.org/2000/svg">
<g clip-path="url(#clip0_216_14)">
<path d="M43.2648 62.1414C55.593 62.1414 65.5811 52.1449 65.5811 39.8247C65.5811 27.4917 55.593 17.5037 43.2648 17.5037C30.9313 17.5037 20.9438 27.4917 20.9438 39.8247C20.9438 52.1449 30.9313 62.1414 43.2648 62.1414Z" fill="#FFDE00"/>
<path d="M119.088 130.176C119.088 129.721 119.013 129.287 118.955 128.849L152.29 104.655C154.384 103.132 154.856 100.187 153.333 98.088C152.449 96.8741 151.026 96.1478 149.523 96.1478C148.526 96.1478 147.575 96.4607 146.766 97.0451L113.364 121.289C112.12 120.722 110.756 120.384 109.3 120.384H91.1428L86.7367 95.2973C84.3168 82.6477 79.2397 72.7139 68.4255 72.7139H22.5787C11.7651 72.7139 0 84.4789 0 95.2973V170.311C0 175.718 4.38069 180.103 9.78775 180.103C12.4498 180.103 9.78775 180.103 16.6218 180.103L20.3432 244.079C20.3432 249.832 25.0118 254.496 30.7652 254.496C35.079 254.496 45.8517 254.496 51.6051 254.496C57.3585 254.496 62.0229 249.832 62.0229 244.079L66.9125 117.36H67.1585L69.9582 129.721C70.8847 135.617 75.9576 139.964 81.9241 139.964H109.302C114.708 139.964 119.088 135.583 119.088 130.176ZM36.1388 116.27V80.6109H48.9558V116.27L42.1467 124.301L36.1388 116.27Z" fill="#FFDE00"/>
<path d="M101.111 25.2185V106.712H113.928V38.0349H259.183V160.507H113.928V145.091H101.111V173.324H272V25.2185H101.111Z" fill="#FFDE00"/>
<path d="M165.649 206.442C165.649 196.454 157.556 188.364 147.572 188.364C137.584 188.364 129.49 196.454 129.49 206.442C129.49 216.422 137.584 224.52 147.572 224.52C157.555 224.52 165.649 216.421 165.649 206.442Z" fill="#FFDE00"/>
<path d="M147.571 234.203C134.684 234.203 123.736 242.66 119.531 254.496H175.612C171.407 242.66 160.459 234.203 147.571 234.203Z" fill="#FFDE00"/>
<path d="M243.617 206.442C243.617 196.454 235.523 188.364 225.54 188.364C215.552 188.364 207.458 196.454 207.458 206.442C207.458 216.422 215.552 224.52 225.54 224.52C235.523 224.52 243.617 216.421 243.617 206.442Z" fill="#FFDE00"/>
<path d="M225.54 234.203C212.652 234.203 201.704 242.66 197.499 254.496H253.58C249.375 242.66 238.427 234.203 225.54 234.203Z" fill="#FFDE00"/>
</g>
<defs>
<clipPath id="clip0_216_14">
<rect width="272" height="272" fill="white"/>
</clipPath>
</defs>
</svg>
